<mxfile host="65bd71144e">
    <diagram id="6fP8rEOZrAA3l5v2Du4p" name="Page-1">
        <mxGraphModel dx="778" dy="647" grid="1" gridSize="10" guides="1" tooltips="1" connect="1" arrows="1" fold="1" page="1" pageScale="1" pageWidth="850" pageHeight="1100" math="0" shadow="0">
            <root>
                <mxCell id="0"/>
                <mxCell id="1" parent="0"/>
                <mxCell id="2" value="" style="shape=table;startSize=0;container=1;collapsible=0;childLayout=tableLayout;" vertex="1" parent="1">
                    <mxGeometry x="170" y="430" width="470" height="570" as="geometry"/>
                </mxCell>
                <mxCell id="3" value="" style="shape=tableRow;horizontal=0;startSize=0;swimlaneHead=0;swimlaneBody=0;top=0;left=0;bottom=0;right=0;collapsible=0;dropTarget=0;fillColor=none;points=[[0,0.5],[1,0.5]];portConstraint=eastwest;" vertex="1" parent="2">
                    <mxGeometry width="470" height="61" as="geometry"/>
                </mxCell>
                <mxCell id="4" value="React Routes" style="shape=partialRectangle;html=1;whiteSpace=wrap;connectable=0;overflow=hidden;fillColor=none;top=0;left=0;bottom=0;right=0;pointerEvents=1;perimeterSpacing=0;shadow=0;rowspan=1;colspan=3;" vertex="1" parent="3">
                    <mxGeometry width="470" height="61" as="geometry">
                        <mxRectangle width="156" height="61" as="alternateBounds"/>
                    </mxGeometry>
                </mxCell>
                <mxCell id="5" value="React Routes" style="shape=partialRectangle;html=1;whiteSpace=wrap;connectable=0;overflow=hidden;fillColor=none;top=0;left=0;bottom=0;right=0;pointerEvents=1;perimeterSpacing=0;shadow=0;" vertex="1" visible="0" parent="3">
                    <mxGeometry x="156" width="158" height="61" as="geometry">
                        <mxRectangle width="158" height="61" as="alternateBounds"/>
                    </mxGeometry>
                </mxCell>
                <mxCell id="6" value="" style="shape=partialRectangle;html=1;whiteSpace=wrap;connectable=0;overflow=hidden;fillColor=none;top=0;left=0;bottom=0;right=0;pointerEvents=1;perimeterSpacing=0;" vertex="1" visible="0" parent="3">
                    <mxGeometry x="314" width="156" height="61" as="geometry">
                        <mxRectangle width="156" height="61" as="alternateBounds"/>
                    </mxGeometry>
                </mxCell>
                <mxCell id="7" value="" style="shape=tableRow;horizontal=0;startSize=0;swimlaneHead=0;swimlaneBody=0;top=0;left=0;bottom=0;right=0;collapsible=0;dropTarget=0;fillColor=none;points=[[0,0.5],[1,0.5]];portConstraint=eastwest;" vertex="1" parent="2">
                    <mxGeometry y="61" width="470" height="59" as="geometry"/>
                </mxCell>
                <mxCell id="8" value="&lt;b&gt;REACT ROUTES&lt;/b&gt;" style="shape=partialRectangle;html=1;whiteSpace=wrap;connectable=0;overflow=hidden;fillColor=none;top=0;left=0;bottom=0;right=0;pointerEvents=1;" vertex="1" parent="7">
                    <mxGeometry width="156" height="59" as="geometry">
                        <mxRectangle width="156" height="59" as="alternateBounds"/>
                    </mxGeometry>
                </mxCell>
                <mxCell id="9" value="&lt;b&gt;COMPONENTS&lt;/b&gt;" style="shape=partialRectangle;html=1;whiteSpace=wrap;connectable=0;overflow=hidden;fillColor=none;top=0;left=0;bottom=0;right=0;pointerEvents=1;" vertex="1" parent="7">
                    <mxGeometry x="156" width="158" height="59" as="geometry">
                        <mxRectangle width="158" height="59" as="alternateBounds"/>
                    </mxGeometry>
                </mxCell>
                <mxCell id="10" value="&lt;b&gt;DESCRIPTION&lt;/b&gt;" style="shape=partialRectangle;html=1;whiteSpace=wrap;connectable=0;overflow=hidden;fillColor=none;top=0;left=0;bottom=0;right=0;pointerEvents=1;" vertex="1" parent="7">
                    <mxGeometry x="314" width="156" height="59" as="geometry">
                        <mxRectangle width="156" height="59" as="alternateBounds"/>
                    </mxGeometry>
                </mxCell>
                <mxCell id="11" value="" style="shape=tableRow;horizontal=0;startSize=0;swimlaneHead=0;swimlaneBody=0;top=0;left=0;bottom=0;right=0;collapsible=0;dropTarget=0;fillColor=none;points=[[0,0.5],[1,0.5]];portConstraint=eastwest;" vertex="1" parent="2">
                    <mxGeometry y="120" width="470" height="60" as="geometry"/>
                </mxCell>
                <mxCell id="12" value="'/'" style="shape=partialRectangle;html=1;whiteSpace=wrap;connectable=0;overflow=hidden;fillColor=none;top=0;left=0;bottom=0;right=0;pointerEvents=1;" vertex="1" parent="11">
                    <mxGeometry width="156" height="60" as="geometry">
                        <mxRectangle width="156" height="60" as="alternateBounds"/>
                    </mxGeometry>
                </mxCell>
                <mxCell id="13" value="HomePage, NavBar" style="shape=partialRectangle;html=1;whiteSpace=wrap;connectable=0;overflow=hidden;fillColor=none;top=0;left=0;bottom=0;right=0;pointerEvents=1;" vertex="1" parent="11">
                    <mxGeometry x="156" width="158" height="60" as="geometry">
                        <mxRectangle width="158" height="60" as="alternateBounds"/>
                    </mxGeometry>
                </mxCell>
                <mxCell id="14" value="HomePage w/ navbar&amp;nbsp;" style="shape=partialRectangle;html=1;whiteSpace=wrap;connectable=0;overflow=hidden;fillColor=none;top=0;left=0;bottom=0;right=0;pointerEvents=1;" vertex="1" parent="11">
                    <mxGeometry x="314" width="156" height="60" as="geometry">
                        <mxRectangle width="156" height="60" as="alternateBounds"/>
                    </mxGeometry>
                </mxCell>
                <mxCell id="15" value="" style="shape=tableRow;horizontal=0;startSize=0;swimlaneHead=0;swimlaneBody=0;top=0;left=0;bottom=0;right=0;collapsible=0;dropTarget=0;fillColor=none;points=[[0,0.5],[1,0.5]];portConstraint=eastwest;" vertex="1" parent="2">
                    <mxGeometry y="180" width="470" height="60" as="geometry"/>
                </mxCell>
                <mxCell id="16" value="'/about'" style="shape=partialRectangle;html=1;whiteSpace=wrap;connectable=0;overflow=hidden;fillColor=none;top=0;left=0;bottom=0;right=0;pointerEvents=1;" vertex="1" parent="15">
                    <mxGeometry width="156" height="60" as="geometry">
                        <mxRectangle width="156" height="60" as="alternateBounds"/>
                    </mxGeometry>
                </mxCell>
                <mxCell id="17" value="NavBar" style="shape=partialRectangle;html=1;whiteSpace=wrap;connectable=0;overflow=hidden;fillColor=none;top=0;left=0;bottom=0;right=0;pointerEvents=1;" vertex="1" parent="15">
                    <mxGeometry x="156" width="158" height="60" as="geometry">
                        <mxRectangle width="158" height="60" as="alternateBounds"/>
                    </mxGeometry>
                </mxCell>
                <mxCell id="18" value="About Page" style="shape=partialRectangle;html=1;whiteSpace=wrap;connectable=0;overflow=hidden;fillColor=none;top=0;left=0;bottom=0;right=0;pointerEvents=1;" vertex="1" parent="15">
                    <mxGeometry x="314" width="156" height="60" as="geometry">
                        <mxRectangle width="156" height="60" as="alternateBounds"/>
                    </mxGeometry>
                </mxCell>
                <mxCell id="19" value="" style="shape=tableRow;horizontal=0;startSize=0;swimlaneHead=0;swimlaneBody=0;top=0;left=0;bottom=0;right=0;collapsible=0;dropTarget=0;fillColor=none;points=[[0,0.5],[1,0.5]];portConstraint=eastwest;" vertex="1" parent="2">
                    <mxGeometry y="240" width="470" height="61" as="geometry"/>
                </mxCell>
                <mxCell id="20" value="'/ourvenue'" style="shape=partialRectangle;html=1;whiteSpace=wrap;connectable=0;overflow=hidden;fillColor=none;top=0;left=0;bottom=0;right=0;pointerEvents=1;" vertex="1" parent="19">
                    <mxGeometry width="156" height="61" as="geometry">
                        <mxRectangle width="156" height="61" as="alternateBounds"/>
                    </mxGeometry>
                </mxCell>
                <mxCell id="21" value="NavBar" style="shape=partialRectangle;html=1;whiteSpace=wrap;connectable=0;overflow=hidden;fillColor=none;top=0;left=0;bottom=0;right=0;pointerEvents=1;" vertex="1" parent="19">
                    <mxGeometry x="156" width="158" height="61" as="geometry">
                        <mxRectangle width="158" height="61" as="alternateBounds"/>
                    </mxGeometry>
                </mxCell>
                <mxCell id="22" value="Venue info page" style="shape=partialRectangle;html=1;whiteSpace=wrap;connectable=0;overflow=hidden;fillColor=none;top=0;left=0;bottom=0;right=0;pointerEvents=1;" vertex="1" parent="19">
                    <mxGeometry x="314" width="156" height="61" as="geometry">
                        <mxRectangle width="156" height="61" as="alternateBounds"/>
                    </mxGeometry>
                </mxCell>
                <mxCell id="23" value="" style="shape=tableRow;horizontal=0;startSize=0;swimlaneHead=0;swimlaneBody=0;top=0;left=0;bottom=0;right=0;collapsible=0;dropTarget=0;fillColor=none;points=[[0,0.5],[1,0.5]];portConstraint=eastwest;" vertex="1" parent="2">
                    <mxGeometry y="301" width="470" height="60" as="geometry"/>
                </mxCell>
                <mxCell id="24" value="'/menus'" style="shape=partialRectangle;html=1;whiteSpace=wrap;connectable=0;overflow=hidden;fillColor=none;top=0;left=0;bottom=0;right=0;pointerEvents=1;" vertex="1" parent="23">
                    <mxGeometry width="156" height="60" as="geometry">
                        <mxRectangle width="156" height="60" as="alternateBounds"/>
                    </mxGeometry>
                </mxCell>
                <mxCell id="25" value="NavBar, MenuNavBar, MenuItemList" style="shape=partialRectangle;html=1;whiteSpace=wrap;connectable=0;overflow=hidden;fillColor=none;top=0;left=0;bottom=0;right=0;pointerEvents=1;" vertex="1" parent="23">
                    <mxGeometry x="156" width="158" height="60" as="geometry">
                        <mxRectangle width="158" height="60" as="alternateBounds"/>
                    </mxGeometry>
                </mxCell>
                <mxCell id="26" value="Display all 4 menus dynamically" style="shape=partialRectangle;html=1;whiteSpace=wrap;connectable=0;overflow=hidden;fillColor=none;top=0;left=0;bottom=0;right=0;pointerEvents=1;" vertex="1" parent="23">
                    <mxGeometry x="314" width="156" height="60" as="geometry">
                        <mxRectangle width="156" height="60" as="alternateBounds"/>
                    </mxGeometry>
                </mxCell>
                <mxCell id="27" value="" style="shape=tableRow;horizontal=0;startSize=0;swimlaneHead=0;swimlaneBody=0;top=0;left=0;bottom=0;right=0;collapsible=0;dropTarget=0;fillColor=none;points=[[0,0.5],[1,0.5]];portConstraint=eastwest;" vertex="1" parent="2">
                    <mxGeometry y="361" width="470" height="60" as="geometry"/>
                </mxCell>
                <mxCell id="28" value="'/gallery'" style="shape=partialRectangle;html=1;whiteSpace=wrap;connectable=0;overflow=hidden;fillColor=none;top=0;left=0;bottom=0;right=0;pointerEvents=1;" vertex="1" parent="27">
                    <mxGeometry width="156" height="60" as="geometry">
                        <mxRectangle width="156" height="60" as="alternateBounds"/>
                    </mxGeometry>
                </mxCell>
                <mxCell id="29" value="NavBar, ImageGallery" style="shape=partialRectangle;html=1;whiteSpace=wrap;connectable=0;overflow=hidden;fillColor=none;top=0;left=0;bottom=0;right=0;pointerEvents=1;" vertex="1" parent="27">
                    <mxGeometry x="156" width="158" height="60" as="geometry">
                        <mxRectangle width="158" height="60" as="alternateBounds"/>
                    </mxGeometry>
                </mxCell>
                <mxCell id="30" value="Image page" style="shape=partialRectangle;html=1;whiteSpace=wrap;connectable=0;overflow=hidden;fillColor=none;top=0;left=0;bottom=0;right=0;pointerEvents=1;" vertex="1" parent="27">
                    <mxGeometry x="314" width="156" height="60" as="geometry">
                        <mxRectangle width="156" height="60" as="alternateBounds"/>
                    </mxGeometry>
                </mxCell>
                <mxCell id="31" value="" style="shape=tableRow;horizontal=0;startSize=0;swimlaneHead=0;swimlaneBody=0;top=0;left=0;bottom=0;right=0;collapsible=0;dropTarget=0;fillColor=none;points=[[0,0.5],[1,0.5]];portConstraint=eastwest;" vertex="1" parent="2">
                    <mxGeometry y="421" width="470" height="88" as="geometry"/>
                </mxCell>
                <mxCell id="32" value="'/designyourmenu'" style="shape=partialRectangle;html=1;whiteSpace=wrap;connectable=0;overflow=hidden;fillColor=none;top=0;left=0;bottom=0;right=0;pointerEvents=1;" vertex="1" parent="31">
                    <mxGeometry width="156" height="88" as="geometry">
                        <mxRectangle width="156" height="88" as="alternateBounds"/>
                    </mxGeometry>
                </mxCell>
                <mxCell id="33" value="NavBar, SearchBar, MenuNamingForm, ExistingMenus, DesignMenu, SaveMenu, MenuSelector, MenuItemList, YourMenu" style="shape=partialRectangle;html=1;whiteSpace=wrap;connectable=0;overflow=hidden;fillColor=none;top=0;left=0;bottom=0;right=0;pointerEvents=1;" vertex="1" parent="31">
                    <mxGeometry x="156" width="158" height="88" as="geometry">
                        <mxRectangle width="158" height="88" as="alternateBounds"/>
                    </mxGeometry>
                </mxCell>
                <mxCell id="34" value="Dynamically build a menu for an event, add or remove items, name user menu, search menu items, view total" style="shape=partialRectangle;html=1;whiteSpace=wrap;connectable=0;overflow=hidden;fillColor=none;top=0;left=0;bottom=0;right=0;pointerEvents=1;" vertex="1" parent="31">
                    <mxGeometry x="314" width="156" height="88" as="geometry">
                        <mxRectangle width="156" height="88" as="alternateBounds"/>
                    </mxGeometry>
                </mxCell>
                <mxCell id="35" value="" style="shape=tableRow;horizontal=0;startSize=0;swimlaneHead=0;swimlaneBody=0;top=0;left=0;bottom=0;right=0;collapsible=0;dropTarget=0;fillColor=none;points=[[0,0.5],[1,0.5]];portConstraint=eastwest;" vertex="1" parent="2">
                    <mxGeometry y="509" width="470" height="61" as="geometry"/>
                </mxCell>
                <mxCell id="36" value="'/yourmenus'" style="shape=partialRectangle;html=1;whiteSpace=wrap;connectable=0;overflow=hidden;fillColor=none;top=0;left=0;bottom=0;right=0;pointerEvents=1;" vertex="1" parent="35">
                    <mxGeometry width="156" height="61" as="geometry">
                        <mxRectangle width="156" height="61" as="alternateBounds"/>
                    </mxGeometry>
                </mxCell>
                <mxCell id="37" value="NavBar, ExistingMenus" style="shape=partialRectangle;html=1;whiteSpace=wrap;connectable=0;overflow=hidden;fillColor=none;top=0;left=0;bottom=0;right=0;pointerEvents=1;" vertex="1" parent="35">
                    <mxGeometry x="156" width="158" height="61" as="geometry">
                        <mxRectangle width="158" height="61" as="alternateBounds"/>
                    </mxGeometry>
                </mxCell>
                <mxCell id="38" value="View menus that user has created" style="shape=partialRectangle;html=1;whiteSpace=wrap;connectable=0;overflow=hidden;fillColor=none;top=0;left=0;bottom=0;right=0;pointerEvents=1;" vertex="1" parent="35">
                    <mxGeometry x="314" width="156" height="61" as="geometry">
                        <mxRectangle width="156" height="61" as="alternateBounds"/>
                    </mxGeometry>
                </mxCell>
            </root>
        </mxGraphModel>
    </diagram>
</mxfile>